HIERARCHY
ROOT Hips
{
    OFFSET 0.0 0.0 0.0
    CHANNELS 6 Xposition Yposition Zposition Zrotation Xrotation Yrotation
    JOINT LeftHipJoint
    {
        OFFSET 0.1 0.0 0.0
        CHANNELS 3 Zrotation Xrotation Yrotation
        JOINT LeftUpLeg
        {
            OFFSET 0.11037390898122382 0.0 0.0
            CHANNELS 3 Zrotation Xrotation Yrotation
            JOINT LeftLeg
            {
                OFFSET 0.0 0.0 -0.35388839074159595
                CHANNELS 3 Zrotation Xrotation Yrotation
                JOINT LeftFoot
                {
                    OFFSET 0.0 0.0 -0.30072336877539163
                    CHANNELS 3 Zrotation Xrotation Yrotation
                    End Site
                    {
                        OFFSET 0.0 -0.1 0.0
                    }
                }
            }
        }
    }
    JOINT LowerBack
    {
        OFFSET 0.0 0.0 0.1
        CHANNELS 3 Zrotation Xrotation Yrotation
        JOINT Spine
        {
            OFFSET 0.0 0.0 0.24380273962262938
            CHANNELS 3 Zrotation Xrotation Yrotation
            JOINT Spine1
            {
                OFFSET 0.0 0.0 0.24417742726865238
                CHANNELS 3 Zrotation Xrotation Yrotation
                JOINT LeftShoulder
                {
                    OFFSET 0.1 0.0 0.0
                    CHANNELS 3 Zrotation Xrotation Yrotation
                    JOINT LeftArm
                    {
                        OFFSET 0.16200838575067203 0.0 0.0
                        CHANNELS 3 Zrotation Xrotation Yrotation
                        JOINT LeftForeArm
                        {
                            OFFSET 0.21935025079064097 0.0 0.0
                            CHANNELS 3 Zrotation Xrotation Yrotation
                            JOINT LeftHand
                            {
                                OFFSET 0.19009406108369253 0.0 0.0
                                CHANNELS 3 Zrotation Xrotation Yrotation
                                End Site
                                {
                                    OFFSET 0.1 0.0 0.0
                                }
                            }
                        }
                    }
                }
                JOINT Neck
                {
                    OFFSET 0.0 0.0 0.1
                    CHANNELS 3 Zrotation Xrotation Yrotation
                    JOINT Neck1
                    {
                        OFFSET 0.0 0.0 0.15324578332511438
                        CHANNELS 3 Zrotation Xrotation Yrotation
                        End Site
                        {
                            OFFSET 0.0 0.0 0.1483978458247319
                        }
                    }
                }
                JOINT RightShoulder
                {
                    OFFSET -0.1 0.0 0.0
                    CHANNELS 3 Zrotation Xrotation Yrotation
                    JOINT RightArm
                    {
                        OFFSET -0.16200838575067203 0.0 0.0
                        CHANNELS 3 Zrotation Xrotation Yrotation
                        JOINT RightForeArm
                        {
                            OFFSET -0.21935025079064097 0.0 0.0
                            CHANNELS 3 Zrotation Xrotation Yrotation
                            JOINT RightHand
                            {
                                OFFSET -0.19009406108369253 0.0 0.0
                                CHANNELS 3 Zrotation Xrotation Yrotation
                                End Site
                                {
                                    OFFSET -0.1 0.0 0.0
                                }
                            }
                        }
                    }
                }
            }
        }
    }
    JOINT RightHipJoint
    {
        OFFSET -0.1 0.0 0.0
        CHANNELS 3 Zrotation Xrotation Yrotation
        JOINT RightUpLeg
        {
            OFFSET -0.11037390898122382 0.0 0.0
            CHANNELS 3 Zrotation Xrotation Yrotation
            JOINT RightLeg
            {
                OFFSET 0.0 0.0 -0.35388839074159595
                CHANNELS 3 Zrotation Xrotation Yrotation
                JOINT RightFoot
                {
                    OFFSET 0.0 0.0 -0.30072336877539163
                    CHANNELS 3 Zrotation Xrotation Yrotation
                    End Site
                    {
                        OFFSET 0.0 -0.1 0.0
                    }
                }
            }
        }
    }
}
MOTION
Frames: 5
Frame Time: 0.03333333333333333
0.016749639064073563 -0.07037945836782455 0.001363045885227612 -49.86966471006855 -81.71109128735547 -47.78430974616625 0.0 0.0 0.0 -1.0620207890423599 11.293940080525605 -1.1602194248529147 0.1799262577911804 8.689512471115728 0.4225174189329946 -4.4139062980501586e-32 6.3611093629270335e-15 7.951386703658792e-16 0.0 0.0 0.0 0.07663981469023456 1.3599146664410662 -6.77491966079985 -3.1248495222182973 1.2778006596608484e-14 -4.9181510819933025e-17 -3.975693351829396e-16 0.0 0.0 -37.46096770149984 -59.64346489091446 -13.044694708623485 -60.09917905956071 2.0647978011280564e-15 1.1944955363908685e-15 -7.951386703658794e-16 0.0 0.0 -3.975693351829396e-16 0.0 0.0 -20.603632881406543 12.470962244049817 10.074449064646158 -3.975693351829396e-16 0.0 0.0 11.413333788788304 -4.088365352720719 -58.02063717611079 23.62716409320823 -1.3022977574983234e-15 -6.226373975110459e-15 0.0 0.0 0.0 0.0 0.0 0.0 2.491385952953079 13.029650086761494 -4.755210077747692 -0.0657200666831521 7.689730974203703 -1.2788825473648786 1.987846675914698e-16 8.620910738379216e-35 4.969616689786745e-17
0.016505450010299683 -0.08303064852952957 -8.131499635056678e-05 -47.58378419006414 -81.79131402876416 -45.06590144910951 0.0 0.0 0.0 -0.48204839943301464 10.410114304269339 -1.9333623958404753 0.10285867659821613 9.929752870326233 0.4379644741805301 7.951386703658792e-16 0.0 0.0 0.0 0.0 0.0 0.04052088011747787 0.6617729245885033 -8.11294054268381 -4.270321881603518 -5.83567685568274e-15 -2.206798417042782e-15 0.0 0.0 -3.975693351829396e-16 -62.52600480325277 -52.35491011380137 -45.54288110356365 -49.28141817481611 7.227334296330287e-15 3.315145468936447e-15 -7.951386703658792e-16 0.0 0.0 0.0 0.0 -3.975693351829396e-16 -29.64979494946197 10.410196356161391 14.54588097702136 0.0 0.0 -3.975693351829396e-16 25.32462445195987 7.012889141858737 -60.00691726233432 24.335216353082984 -3.1091041861751626e-15 6.703724645952957e-16 -6.3611093629270335e-15 -3.1805546814635168e-15 6.3611093629270335e-15 0.0 0.0 0.0 2.0037393603783764 13.150950659414724 -4.867795447208532 -0.027665061969430492 7.3308848032555405 -2.2080115388101382 3.975693351829396e-16 -7.859845962256676e-34 -2.2654463581957543e-16
0.016624169424176216 -0.08240143954753876 -0.0006136316224001449 -47.02364417430604 -81.56271051858023 -44.62818292678598 0.0 0.0 0.0 -0.6818235555989489 10.328050498207693 -1.6477358793238932 0.11514662241736275 9.376570052343961 0.20433054599469838 0.0 0.0 0.0 0.0 0.0 0.0 0.010133795230096205 0.1722022100365994 -8.514137569967357 -4.6114469483275675 8.778119224830409e-16 4.3323587389644697e-16 3.975693351829396e-16 -1.3793457181406746e-33 -3.975693351829396e-16 -71.26868638884338 -43.0235466727207 -59.41813945991316 -41.34537546998546 -4.828705256462966e-15 -5.221421832710355e-15 2.3854160110976376e-15 0.0 0.0 3.975693351829396e-16 -1.3793457181406746e-33 -3.975693351829396e-16 -34.319970942614326 9.237162613428119 16.567084304073543 3.975693351829396e-16 -1.3793457181406746e-33 -3.975693351829396e-16 28.77490659790245 10.698981520715135 -63.20034088720053 27.65899248213886 -6.224029266210196e-15 1.4634194946694067e-14 0.0 0.0 0.0 0.0 0.0 0.0 2.1243413093571544 12.95811134225103 -4.659975252753109 -0.014414205207180168 6.98363928761533 -2.498364029743452 0.0 0.0 -3.2302508483613845e-16
0.016572892665863037 -0.07120270282030106 -0.0006422033184208063 -46.29993247945868 -81.00149022375692 -44.35148562398914 0.0 0.0 0.0 -1.0475281756229946 10.552665610633913 -0.676894970836345 0.2550944065725817 7.881379004821062 -0.0812814331089196 -7.951386703658794e-16 -2.758691436281349e-33 3.975693351829397e-16 0.0 0.0 0.0 -0.03205501474142734 -0.5929886998326044 -8.718948032364064 -4.671514844356379 -1.0595828777213045e-14 -3.615395401928108e-15 -3.975693351829397e-16 6.361109362927035e-15 3.975693351829397e-16 -71.37897254054204 -36.276272424071536 -64.30655073349492 -37.5386595132857 -9.646743546795856e-16 -7.046207760087759e-15 -1.5902773407317584e-15 0.0 0.0 -3.975693351829397e-16 6.361109362927035e-15 3.975693351829397e-16 -34.67088388061537 9.752435822816942 17.070490270536116 -3.975693351829397e-16 6.361109362927035e-15 3.975693351829397e-16 31.442638204929686 13.13039341535139 -67.10589957686545 35.00582832761529 2.202606365715899e-14 6.393807943887078e-15 0.0 0.0 0.0 0.0 0.0 0.0 2.3650179631630275 12.786520506796364 -4.2803494853557265 -0.04519937235120888 5.469744251530842 -2.12340129826386 1.2424041724466861e-17 7.765026077791788e-19 1.1802839638243516e-16
0.016273263841867447 -0.04755924269556999 0.0005031405016779841 -48.724748544477244 -80.27752601881201 -47.55114796649411 7.951386703658792e-16 5.517382872562698e-33 7.951386703658792e-16 -1.4011827320085009 11.825284291150085 0.9128633355988139 0.30057205649067054 4.7455513289608495 -0.40163004825190624 -7.951386703658792e-16 6.3611093629270335e-15 3.975693351829396e-16 7.951386703658792e-16 5.517382872562698e-33 7.951386703658792e-16 -0.06134125700691207 -1.0624963187777825 -9.109700543491716 -4.099394664685352 1.377104171768058e-14 2.879798285086341e-15 7.951386703658792e-16 -1.1034765745125397e-32 -1.5902773407317584e-15 -69.41308830391641 -33.317529541983745 -65.37824412366516 -37.525771988116794 -5.000032973680668e-15 -5.057599299173822e-15 -4.373262687012335e-15 6.069121159818968e-32 -1.590277340731758e-15 7.951386703658792e-16 -1.1034765745125397e-32 -1.5902773407317584e-15 -38.05807791664443 9.792357412663785 18.292002636978992 7.951386703658792e-16 -1.1034765745125397e-32 -1.5902773407317584e-15 31.892450122424943 14.038408986017991 -71.61456605630991 42.69171079738144 -3.6093153148381e-15 8.240161868089189e-15 0.0 0.0 0.0 7.951386703658792e-16 5.517382872562698e-33 7.951386703658792e-16 2.8943718083635255 12.74711816140832 -3.571383876469678 0.031638508765902476 3.624138871946048 -1.396342638161406 1.987846675914698e-16 -2.586273221513765e-34 -1.4908850069360235e-16
